<svg width="42" height="40" viewBox="0 0 42 40" fill="none" xmlns="http://www.w3.org/2000/svg">
<path d="M33.25 6.66675H8.75C7.7835 6.66675 7 7.41294 7 8.33341V31.6667C7 32.5872 7.7835 33.3334 8.75 33.3334H33.25C34.2165 33.3334 35 32.5872 35 31.6667V8.33341C35 7.41294 34.2165 6.66675 33.25 6.66675Z" stroke="#9642AB" stroke-width="2" stroke-linecap="round" stroke-linejoin="round"/>
<path d="M28 26.6667H28.0035V26.6701H28V26.6667Z" stroke="#9642AB" stroke-width="2" stroke-linecap="round" stroke-linejoin="round"/>
<path d="M21 26.6667H21.0035V26.6701H21V26.6667Z" stroke="#9642AB" stroke-width="2" stroke-linecap="round" stroke-linejoin="round"/>
<path d="M14 26.6667H14.0035V26.6701H14V26.6667Z" stroke="#9642AB" stroke-width="2" stroke-linecap="round" stroke-linejoin="round"/>
<path d="M28 20H28.0035V20.0033H28V20Z" stroke="#9642AB" stroke-width="2" stroke-linecap="round" stroke-linejoin="round"/>
<path d="M21 20H21.0035V20.0033H21V20Z" stroke="#9642AB" stroke-width="2" stroke-linecap="round" stroke-linejoin="round"/>
<path d="M14 20H14.0035V20.0033H14V20Z" stroke="#9642AB" stroke-width="2" stroke-linecap="round" stroke-linejoin="round"/>
<path d="M7 13.3333H35" stroke="#9642AB" stroke-width="2" stroke-linecap="round" stroke-linejoin="round"/>
<path d="M28 3.33325V6.66659" stroke="#9642AB" stroke-width="2" stroke-linecap="round" stroke-linejoin="round"/>
<path d="M14 3.33325V6.66659" stroke="#9642AB" stroke-width="2" stroke-linecap="round" stroke-linejoin="round"/>
</svg>
