<svg width="30" height="30" viewBox="0 0 30 30" fill="none" xmlns="http://www.w3.org/2000/svg">
<path d="M12.1774 16.4082C11.7869 16.7987 11.7869 17.4319 12.1774 17.8224C12.5679 18.2129 13.2011 18.2129 13.5916 17.8224L12.1774 16.4082ZM19.6493 11.7647C20.0398 11.3742 20.0398 10.741 19.6493 10.3505C19.2588 9.95999 18.6256 9.95999 18.2351 10.3505L19.6493 11.7647ZM13.5916 17.8224L19.6493 11.7647L18.2351 10.3505L12.1774 16.4082L13.5916 17.8224Z" fill="white"/>
<path d="M17.1627 25.9594L16.2683 26.4066L17.1627 25.9594ZM19.4755 25.768L18.5197 25.4739L19.4755 25.768ZM12.416 17.0251L11.9688 17.9195L12.416 17.0251ZM12.975 17.5841L13.8695 17.1369L12.975 17.5841ZM4.23215 10.5247L4.52624 11.4805L4.23215 10.5247ZM4.04074 12.8375L3.59353 13.7319H3.59353L4.04074 12.8375ZM23.9935 4.44429L24.2876 5.40007L23.9935 4.44429ZM25.5559 6.00662L26.5117 6.30071L25.5559 6.00662ZM23.6995 3.48851L3.93807 9.56894L4.52624 11.4805L24.2876 5.40007L23.6995 3.48851ZM3.59353 13.7319L11.9688 17.9195L12.8632 16.1307L4.48796 11.943L3.59353 13.7319ZM12.0806 18.0314L16.2683 26.4066L18.0571 25.5122L13.8695 17.1369L12.0806 18.0314ZM20.4312 26.0621L26.5117 6.30071L24.6001 5.71253L18.5197 25.4739L20.4312 26.0621ZM16.2683 26.4066C17.176 28.2222 19.8343 28.0022 20.4312 26.0621L18.5197 25.4739C18.4533 25.6895 18.158 25.7139 18.0571 25.5122L16.2683 26.4066ZM11.9688 17.9195C12.0172 17.9437 12.0564 17.983 12.0806 18.0314L13.8695 17.1369C13.6518 16.7015 13.2987 16.3484 12.8632 16.1307L11.9688 17.9195ZM3.93807 9.56894C1.99797 10.1659 1.77797 12.8241 3.59353 13.7319L4.48796 11.943C4.28623 11.8422 4.31068 11.5468 4.52624 11.4805L3.93807 9.56894ZM24.2876 5.40007C24.4795 5.34105 24.6591 5.52072 24.6001 5.71253L26.5117 6.30071C27.0429 4.57433 25.4258 2.95732 23.6995 3.48851L24.2876 5.40007Z" fill="white"/>
</svg>
