<svg width="110" height="110" viewBox="0 0 110 110" fill="none" xmlns="http://www.w3.org/2000/svg">
<path d="M55 96.25C77.7817 96.25 96.25 77.7817 96.25 55C96.25 32.2183 77.7817 13.75 55 13.75C32.2183 13.75 13.75 32.2183 13.75 55C13.75 77.7817 32.2183 96.25 55 96.25Z" stroke="white" stroke-width="2" stroke-linecap="round" stroke-linejoin="round"/>
<path d="M78.9089 88.6061C73.0343 82.0452 64.499 77.9165 54.9993 77.9165C45.4996 77.9165 36.9643 82.0452 31.0897 88.6061" stroke="white" stroke-width="2" stroke-linecap="round" stroke-linejoin="round"/>
<path d="M55 64.1667C62.5939 64.1667 68.75 58.0107 68.75 50.4167C68.75 42.8228 62.5939 36.6667 55 36.6667C47.4061 36.6667 41.25 42.8228 41.25 50.4167C41.25 58.0107 47.4061 64.1667 55 64.1667Z" stroke="white" stroke-width="2" stroke-linecap="round" stroke-linejoin="round"/>
</svg>
