<svg width="90" height="90" viewBox="0 0 90 90" fill="none" xmlns="http://www.w3.org/2000/svg">
<path d="M45 48.75C51.2132 48.75 56.25 43.7132 56.25 37.5C56.25 31.2868 51.2132 26.25 45 26.25C38.7868 26.25 33.75 31.2868 33.75 37.5C33.75 43.7132 38.7868 48.75 45 48.75Z" stroke="white" stroke-width="2" stroke-linecap="round" stroke-linejoin="round"/>
<path d="M75 11.25H15C12.9289 11.25 11.25 12.9289 11.25 15V75C11.25 77.0711 12.9289 78.75 15 78.75H75C77.0711 78.75 78.75 77.0711 78.75 75V15C78.75 12.9289 77.0711 11.25 75 11.25Z" stroke="white" stroke-width="2" stroke-linecap="round" stroke-linejoin="round"/>
<path d="M26.25 78.75C26.25 68.3947 34.6447 60 45 60C55.3553 60 63.75 68.3947 63.75 78.75" stroke="white" stroke-width="2" stroke-linecap="round" stroke-linejoin="round"/>
</svg>
